<svg xmlns="http://www.w3.org/2000/svg" 
    xmlns:xlink="http://www.w3.org/1999/xlink" style="isolation:isolate" viewBox="0 0 2427.266 1623.935" width="2427.266pt" height="1623.935pt">
    <defs>
        <clipPath id="_clipPath_cPvZJsUaPHIxDR4srZYyL7iMqvtWBu6Q">
            <rect width="2427.266" height="1623.935"/>
        </clipPath>
    </defs>
    <g clip-path="url(#_clipPath_cPvZJsUaPHIxDR4srZYyL7iMqvtWBu6Q)">
        <clipPath id="_clipPath_6jl12Yi2ys7aQpzizlba8M8M6Yk6hpCZ">
            <rect x="0" y="0" width="2427.266" height="1623.935" transform="matrix(1,0,0,1,0,0)" fill="rgb(255,255,255)"/>
        </clipPath>
        <g clip-path="url(#_clipPath_6jl12Yi2ys7aQpzizlba8M8M6Yk6hpCZ)">
            <path d=" M 1061.333 1623.211 L 0 1623.211 L 0 0 L 1061.333 0 L 1061.333 1623.211 Z " fill="rgb(255,255,255)"/>
            <defs>
                <mask id="_mask_aXol9dfF6pI7IwlTQb9WnWdZaM5xRyIU">
                    <path d="M 246.048 1309.448 L 813.386 1309.448 L 813.386 1527.807 L 246.048 1527.807 L 246.048 1309.448 Z" style="stroke:black;fill:white;stroke-miterlimit:10;"/>
                </mask>
                <mask id="_mask_UEqje3sxq9vFtusmsjb8nsU3YzHibixG">
                    <path d="M 246.048 1309.448 L 813.386 1309.448 L 813.386 1527.807 L 246.048 1527.807 L 246.048 1309.448 Z" style="stroke:black;fill:white;stroke-miterlimit:10;"/>
                </mask>
            </defs>
            <g mask="url(#_mask_UEqje3sxq9vFtusmsjb8nsU3YzHibixG)">
                <g mask="url(#_mask_aXol9dfF6pI7IwlTQb9WnWdZaM5xRyIU)"/>
            </g>
            <g mask="url(#_mask_aXol9dfF6pI7IwlTQb9WnWdZaM5xRyIU)">
                <use xlink:href="#img_Hpv5QPLYHAIM6JQZIpnTSaWIqtpXJsU6" transform="matrix(1.418,0,0,0.546,246.048,1309.448)" preserveAspectRatio="none" style=""/>
            </g>
            <path d=" M 0 0 L 0 511.373 L 0 607.373 C 103.618 682.099 207.236 690.951 310.854 672.82 C 309.889 671.14 308.882 669.487 307.955 667.783 C 306.003 664.194 304.135 660.554 302.354 656.863 C 300.572 653.172 298.878 649.432 297.273 645.645 C 295.669 641.857 294.153 638.023 292.73 634.145 C 291.308 630.266 289.978 626.345 288.742 622.381 C 287.507 618.417 286.365 614.411 285.322 610.367 C 284.279 606.323 283.335 602.242 282.49 598.123 C 281.645 594.004 280.9 589.849 280.258 585.66 C 279.616 581.472 279.078 577.249 278.645 572.996 C 278.211 568.743 277.883 564.46 277.664 560.148 C 277.445 555.837 277.334 551.498 277.334 547.133 C 277.334 542.767 277.445 538.427 277.664 534.115 C 277.883 529.803 278.211 525.521 278.645 521.268 C 279.078 517.015 279.616 512.792 280.258 508.604 C 280.9 504.415 281.645 500.26 282.49 496.141 C 283.335 492.021 284.279 487.937 285.322 483.893 C 286.365 479.848 287.507 475.843 288.742 471.879 C 289.978 467.915 291.308 463.994 292.73 460.115 C 294.153 456.237 295.669 452.403 297.273 448.615 C 298.878 444.828 300.572 441.088 302.354 437.396 C 304.135 433.705 306.003 430.062 307.955 426.473 C 309.907 422.883 311.942 419.348 314.061 415.865 C 316.179 412.383 318.38 408.954 320.658 405.584 C 322.937 402.214 325.293 398.901 327.727 395.648 C 330.16 392.396 332.67 389.204 335.254 386.074 C 337.837 382.945 340.495 379.88 343.223 376.879 C 345.951 373.878 348.75 370.941 351.617 368.074 C 354.484 365.207 357.419 362.41 360.42 359.682 C 363.421 356.954 366.486 354.295 369.615 351.711 C 372.744 349.127 375.937 346.617 379.189 344.184 C 382.442 341.75 385.753 339.392 389.123 337.113 C 392.493 334.835 395.92 332.636 399.402 330.518 C 402.885 328.399 406.422 326.363 410.012 324.41 C 413.601 322.458 417.243 320.59 420.934 318.809 C 424.625 317.027 428.363 315.333 432.15 313.729 C 435.938 312.124 439.772 310.608 443.65 309.186 C 447.529 307.763 451.452 306.431 455.416 305.195 C 459.38 303.96 463.384 302.82 467.428 301.777 C 471.472 300.734 475.555 299.789 479.674 298.943 C 483.793 298.098 487.948 297.353 492.137 296.711 C 496.325 296.069 500.548 295.531 504.801 295.098 C 509.054 294.664 513.337 294.336 517.648 294.117 C 521.96 293.898 526.301 293.787 530.666 293.787 C 535.031 293.787 539.37 293.898 543.682 294.117 C 547.993 294.336 552.278 294.664 556.531 295.098 C 560.784 295.531 565.007 296.069 569.195 296.711 C 573.384 297.353 577.539 298.098 581.658 298.943 C 585.777 299.789 589.86 300.734 593.904 301.777 C 597.948 302.82 601.952 303.96 605.916 305.195 C 609.88 306.431 613.803 307.763 617.682 309.186 C 621.56 310.608 625.394 312.124 629.182 313.729 C 632.969 315.333 636.709 317.027 640.4 318.809 C 644.091 320.59 647.731 322.458 651.32 324.41 C 654.91 326.363 658.447 328.399 661.93 330.518 C 665.412 332.636 668.839 334.835 672.209 337.113 C 675.579 339.392 678.892 341.75 682.145 344.184 C 685.397 346.617 688.588 349.127 691.717 351.711 C 694.846 354.295 697.913 356.954 700.914 359.682 C 703.915 362.41 706.85 365.207 709.717 368.074 C 712.584 370.941 715.383 373.878 718.111 376.879 C 720.839 379.88 723.495 382.945 726.078 386.074 C 728.662 389.204 731.172 392.396 733.605 395.648 C 736.039 398.901 738.397 402.214 740.676 405.584 C 742.954 408.954 745.153 412.383 747.271 415.865 C 749.39 419.348 751.427 422.883 753.379 426.473 C 755.331 430.062 757.199 433.705 758.98 437.396 C 760.762 441.088 762.456 444.828 764.061 448.615 C 765.665 452.403 767.181 456.237 768.604 460.115 C 770.026 463.994 771.356 467.915 772.592 471.879 C 773.827 475.843 774.967 479.848 776.01 483.893 C 777.053 487.937 777.999 492.021 778.844 496.141 C 779.689 500.26 780.434 504.415 781.076 508.604 C 781.718 512.792 782.256 517.015 782.689 521.268 C 783.123 525.521 783.451 529.803 783.67 534.115 C 783.717 535.046 783.703 535.992 783.74 536.926 C 876.271 526.325 968.803 540.643 1061.334 607.373 L 1061.334 0 L 0 0 Z " fill="rgb(127,137,255)"/>
            <path d=" M 0 1623.211 L 1061.333 1554.927 L 1061.333 1623.211 L 0 1623.211 Z " fill="rgb(127,137,255)"/>
            <path d=" M 2427.266 1623.935 L 1365.93 1623.935 L 1365.93 0.706 L 2427.266 0.706 L 2427.266 1623.935 Z " fill="rgb(255,255,255)"/>
            <path d=" M 2427.266 1623.935 L 1365.93 1623.935 C 1365.93 1430.875 1365.93 1188.935 1365.93 1016.554 C 1719.705 761.417 2073.486 1271.691 2427.266 1016.554 C 2427.266 1188.935 2427.266 1430.875 2427.266 1623.935 Z " fill="rgb(127,137,255)"/>
            <path d=" M 700.304 117.838 C 700.304 123.182 695.972 127.514 690.628 127.514 C 685.283 127.514 680.951 123.182 680.951 117.838 C 680.951 112.494 685.283 108.161 690.628 108.161 C 695.972 108.161 700.304 112.494 700.304 117.838 Z " fill="rgb(255,255,255)"/>
            <clipPath id="_clipPath_FROzw3HaXiwipQOfnDkscyytrb5oqgQ8">
                <path d=" M -4854.532 -3247.87 L 4854.532 -3247.87 L 4854.532 3247.87 L -4854.532 3247.87 L -4854.532 -3247.87 Z  M 695.112 116.351 L 764.544 52.909 L 695.112 116.351 Z " fill-rule="evenodd" fill="rgb(255,255,255)"/>
            </clipPath>
            <g clip-path="url(#_clipPath_FROzw3HaXiwipQOfnDkscyytrb5oqgQ8)">
                <mask id="_mask_vu7eslau7q7cQT7MHukdfdhPVd8YMwOe" x="-200%" y="-200%" width="400%" height="400%">
                    <rect x="-200%" y="-200%" width="400%" height="400%" style="fill:white;"/>
                    <line x1="695.112" y1="116.351" x2="764.544" y2="52.909" fill="black" stroke="none"/>
                </mask>
                <line x1="695.112" y1="116.351" x2="764.544" y2="52.909" mask="url(#_mask_vu7eslau7q7cQT7MHukdfdhPVd8YMwOe)" vector-effect="non-scaling-stroke" stroke-width="1.773" stroke="rgb(255,255,255)" stroke-opacity="100" stroke-linejoin="miter" stroke-linecap="butt" stroke-miterlimit="4"/>
            </g>
            <path d=" M 785.197 51.921 C 785.197 62.782 776.393 71.585 765.533 71.585 C 754.673 71.585 745.869 62.782 745.869 51.921 C 745.869 41.061 754.673 32.257 765.533 32.257 C 776.393 32.257 785.197 41.061 785.197 51.921 Z " fill="rgb(255,255,255)"/>
            <path d=" M 897.056 134.317 C 897.056 140.213 892.276 144.992 886.38 144.992 C 880.485 144.992 875.705 140.213 875.705 134.317 C 875.705 128.421 880.485 123.642 886.38 123.642 C 892.276 123.642 897.056 128.421 897.056 134.317 Z " fill="rgb(255,255,255)"/>
            <clipPath id="_clipPath_s1XL7X43IW43JE23nMEtrHd32FeqOKUd">
                <path d=" M -4854.532 -3247.87 L 4854.532 -3247.87 L 4854.532 3247.87 L -4854.532 3247.87 L -4854.532 -3247.87 Z  M 885.598 132.708 L 764.63 53.03 L 885.598 132.708 Z " fill-rule="evenodd" fill="rgb(255,255,255)"/>
            </clipPath>
            <g clip-path="url(#_clipPath_s1XL7X43IW43JE23nMEtrHd32FeqOKUd)">
                <mask id="_mask_mi5r4l2DeVpyV8c86OfJteVI4rqpqVJh" x="-200%" y="-200%" width="400%" height="400%">
                    <rect x="-200%" y="-200%" width="400%" height="400%" style="fill:white;"/>
                    <line x1="885.598" y1="132.708" x2="764.63" y2="53.03" fill="black" stroke="none"/>
                </mask>
                <line x1="885.598" y1="132.708" x2="764.63" y2="53.03" mask="url(#_mask_mi5r4l2DeVpyV8c86OfJteVI4rqpqVJh)" vector-effect="non-scaling-stroke" stroke-width="2.623" stroke="rgb(255,255,255)" stroke-opacity="100" stroke-linejoin="miter" stroke-linecap="butt" stroke-miterlimit="4"/>
            </g>
            <clipPath id="_clipPath_EPYTVZfDpAeHV2AAbarDRX4YGszn55Wd">
                <path d=" M -4854.532 -3247.87 L 4854.532 -3247.87 L 4854.532 3247.87 L -4854.532 3247.87 L -4854.532 -3247.87 Z  M 883.719 138.557 L 954.459 65.658 L 883.719 138.557 Z " fill-rule="evenodd" fill="rgb(255,255,255)"/>
            </clipPath>
            <g clip-path="url(#_clipPath_EPYTVZfDpAeHV2AAbarDRX4YGszn55Wd)">
                <mask id="_mask_q4DosxVWoUnq4YIC7NZNmGbgHm1c7Hv5" x="-200%" y="-200%" width="400%" height="400%">
                    <rect x="-200%" y="-200%" width="400%" height="400%" style="fill:white;"/>
                    <line x1="883.719" y1="138.557" x2="954.459" y2="65.658" fill="black" stroke="none"/>
                </mask>
                <line x1="883.719" y1="138.557" x2="954.459" y2="65.658" mask="url(#_mask_q4DosxVWoUnq4YIC7NZNmGbgHm1c7Hv5)" vector-effect="non-scaling-stroke" stroke-width="1.919" stroke="rgb(255,255,255)" stroke-opacity="100" stroke-linejoin="miter" stroke-linecap="butt" stroke-miterlimit="4"/>
            </g>
            <path d=" M 965.969 66.902 C 965.969 73.902 960.295 79.575 953.296 79.575 C 946.297 79.575 940.623 73.902 940.623 66.902 C 940.623 59.903 946.297 54.229 953.296 54.229 C 960.295 54.229 965.969 59.903 965.969 66.902 Z " fill="rgb(255,255,255)"/>
            <g>
                <path d=" M 2351.765 882.924 L 1948.584 882.924 L 1948.584 877.591 L 2351.765 877.591 L 2351.765 882.924 Z " fill="rgb(16,15,13)"/>
            </g>
            <text transform="matrix(1,0,0,1,32.531,130.383)" style="white-space: pre; font-family: Arial, Helvetica, sans-serif;font-weight:600;font-size:100px;font-style:normal;font-variant-ligatures:none;fill:#FFFFFF;stroke:none;">CHOUKSEY</text>
            <text transform="matrix(1,0,0,1,343.626,219.812)" style="white-space: pre; font-family: Arial, Helvetica, sans-serif;font-weight:600;font-size:70px;font-style:normal;font-variant-ligatures:none;fill:#FFFFFF;stroke:none;">Engineering College</text>
            <text transform="matrix(1,0,0,1,271.217,996.345)" style="white-space: pre; font-family: Arial, Helvetica, sans-serif;font-weight:600;font-size:50px;font-style:normal;font-variant-ligatures:none;fill:#000000;stroke:none;">Name   :   {{name}}</text>
            <text transform="matrix(1,0,0,1,271.217,1064.436)" style="white-space: pre; font-family: Arial, Helvetica, sans-serif;font-weight:600;font-size:50px;font-style:normal;font-variant-ligatures:none;fill:[Object GRGBColor];stroke:none;">Branch :   {{branch}}</text>
            <text transform="matrix(1,0,0,1,271.217,1132.526)" style="white-space: pre; font-family: Arial, Helvetica, sans-serif;font-weight:600;font-size:50px;font-style:normal;font-variant-ligatures:none;fill:#000000;stroke:none;">DOB       :   {{DOB}}</text>
            <text transform="matrix(1,0,0,1,271.217,1200.617)" style="white-space: pre; font-family: Arial, Helvetica, sans-serif;font-weight:600;font-size:50px;font-style:normal;font-variant-ligatures:none;fill:#000000;stroke:none;">Bloog G.  :   {{bg}}</text>
            <text transform="matrix(1,0,0,1,271.217,1268.708)" style="white-space: pre; font-family: Arial, Helvetica, sans-serif;font-weight:600;font-size:50px;font-style:normal;font-variant-ligatures:none;fill:#000000;stroke:none;">batch     :   {{batch}}</text>
        </g>
        <ellipse vector-effect="non-scaling-stroke" cx="529.060606060606" cy="546.3030303030303" rx="233.06060606060612" ry="235.69696969696955" fill="rgb(255,255,255)"/>
        <clipPath id="_clipPath_c3s1nFz2e8S8y4mZzeWd7J7Zfd4FQkfs">
            <ellipse vector-effect="non-scaling-stroke" cx="529.060606060606" cy="546.3030303030303" rx="233.06060606060612" ry="235.69696969696955" fill="rgb(255,255,255)"/>
        </clipPath>
        <g clip-path="url(#_clipPath_c3s1nFz2e8S8y4mZzeWd7J7Zfd4FQkfs)">
            <defs>
                <mask id="_mask_oYYPpksRFyUWut2Z1zPEi7knllHpNZ4j">
                    <path d="M 212.57 220.426 L 792.181 220.426 L 792.181 806.594 L 212.57 806.594 L 212.57 220.426 Z" style="stroke:black;fill:white;stroke-miterlimit:10;"/>
                </mask>
                <mask id="_mask_VoC3XTP01tXIHXtH511YC944Q3b6rMCX">
                    <path d="M 212.57 220.426 L 792.181 220.426 L 792.181 806.594 L 212.57 806.594 L 212.57 220.426 Z" style="stroke:black;fill:white;stroke-miterlimit:10;"/>
                </mask>
            </defs>
            <g mask="url(#_mask_VoC3XTP01tXIHXtH511YC944Q3b6rMCX)">
                <g mask="url(#_mask_oYYPpksRFyUWut2Z1zPEi7knllHpNZ4j)"/>
            </g>
            <g mask="url(#_mask_oYYPpksRFyUWut2Z1zPEi7knllHpNZ4j)">
                <use xlink:href="#img_I16l5RKIa0CrvbwBqoLrWpswJDp7aafC" transform="matrix(0.308,0,0,0.312,212.57,220.426)" preserveAspectRatio="none" style=""/>
            </g>
        </g>
    </g>
    <defs>
        <image width="400" height="400" xlink:href="{{barcode}}" id="img_Hpv5QPLYHAIM6JQZIpnTSaWIqtpXJsU6"/>
        <image width="1879" height="1879" xlink:href="{{profile}}"/>
    </defs>
</svg>